<svg enable-background="new 0 0 512 512" height="512" viewBox="0 0 512 512" width="512" xmlns="http://www.w3.org/2000/svg"><path d="m467 73h-422c-24.81 0-45 20.19-45 45v43c0 8.28 6.72 15 15 15h482c8.28 0 15-6.72 15-15v-43c0-24.81-20.19-45-45-45z" fill="#b48e6e"/><path d="m512 118v43c0 8.28-6.72 15-15 15h-241v-103h211c24.81 0 45 20.19 45 45z" fill="#af705c"/><path d="m0 161v265c0 24.85 20.15 45 45 45h422c24.85 0 45-20.15 45-45v-265z" fill="#ffe278"/><path d="m512 161v265c0 24.85-20.15 45-45 45h-211v-310z" fill="#ffc178"/><path d="m96 135c-8.284 0-15-6.716-15-15v-64c0-8.284 6.716-15 15-15s15 6.716 15 15v64c0 8.284-6.716 15-15 15z" fill="#ffe278"/><path d="m176 135c-8.284 0-15-6.716-15-15v-64c0-8.284 6.716-15 15-15s15 6.716 15 15v64c0 8.284-6.716 15-15 15z" fill="#ffe278"/><path d="m336 135c-8.284 0-15-6.716-15-15v-64c0-8.284 6.716-15 15-15s15 6.716 15 15v64c0 8.284-6.716 15-15 15z" fill="#ffc178"/><path d="m416 135c-8.284 0-15-6.716-15-15v-64c0-8.284 6.716-15 15-15s15 6.716 15 15v64c0 8.284-6.716 15-15 15z" fill="#ffc178"/><path d="m271 56v64c0 8.28-6.72 15-15 15s-15-6.72-15-15v-64c0-8.28 6.72-15 15-15s15 6.72 15 15z" fill="#ffe278"/><g fill="#ffc178"><path d="m256 135v-94c8.28 0 15 6.72 15 15v64c0 8.28-6.72 15-15 15z"/><path d="m104 247h-16c-8.284 0-15-6.716-15-15s6.716-15 15-15h16c8.284 0 15 6.716 15 15s-6.716 15-15 15z"/><path d="m184 247h-16c-8.284 0-15-6.716-15-15s6.716-15 15-15h16c8.284 0 15 6.716 15 15s-6.716 15-15 15z"/><path d="m104 303h-16c-8.284 0-15-6.716-15-15s6.716-15 15-15h16c8.284 0 15 6.716 15 15s-6.716 15-15 15z"/><path d="m184 303h-16c-8.284 0-15-6.716-15-15s6.716-15 15-15h16c8.284 0 15 6.716 15 15s-6.716 15-15 15z"/><path d="m104 359h-16c-8.284 0-15-6.716-15-15s6.716-15 15-15h16c8.284 0 15 6.716 15 15s-6.716 15-15 15z"/><path d="m184 359h-16c-8.284 0-15-6.716-15-15s6.716-15 15-15h16c8.284 0 15 6.716 15 15s-6.716 15-15 15z"/><path d="m104 415h-16c-8.284 0-15-6.716-15-15s6.716-15 15-15h16c8.284 0 15 6.716 15 15s-6.716 15-15 15z"/><path d="m184 415h-16c-8.284 0-15-6.716-15-15s6.716-15 15-15h16c8.284 0 15 6.716 15 15s-6.716 15-15 15z"/><path d="m279 232c0 8.28-6.72 15-15 15h-16c-8.28 0-15-6.72-15-15s6.72-15 15-15h16c8.28 0 15 6.72 15 15z"/></g><path d="m264 247h-8v-30h8c8.28 0 15 6.72 15 15s-6.72 15-15 15z" fill="#ff936b"/><path d="m279 288c0 8.28-6.72 15-15 15h-16c-8.28 0-15-6.72-15-15s6.72-15 15-15h16c8.28 0 15 6.72 15 15z" fill="#ffc178"/><path d="m279 288c0 8.28-6.72 15-15 15h-8v-30h8c8.28 0 15 6.72 15 15z" fill="#ff936b"/><path d="m279 344c0 8.28-6.72 15-15 15h-16c-8.28 0-15-6.72-15-15s6.72-15 15-15h16c8.28 0 15 6.72 15 15z" fill="#ffc178"/><path d="m279 344c0 8.28-6.72 15-15 15h-8v-30h8c8.28 0 15 6.72 15 15z" fill="#ff936b"/><path d="m279 400c0 8.28-6.72 15-15 15h-16c-8.28 0-15-6.72-15-15s6.72-15 15-15h16c8.28 0 15 6.72 15 15z" fill="#ffc178"/><path d="m279 400c0 8.28-6.72 15-15 15h-8v-30h8c8.28 0 15 6.72 15 15z" fill="#ff936b"/><path d="m392 415c-8.284 0-15-6.716-15-15v-55.7c0-8.284 6.716-15 15-15s15 6.716 15 15v55.7c0 8.284-6.716 15-15 15z" fill="#63544f"/><path d="m431.999 367c-1.882 0-3.772-.354-5.57-1.073-22.201-8.881-46.656-8.881-68.857 0-4.622 1.851-9.859 1.284-13.98-1.506-4.123-2.79-6.592-7.443-6.592-12.421v-64c0-4.978 2.469-9.631 6.591-12.421s9.36-3.355 13.98-1.506c22.201 8.881 46.656 8.881 68.857 0 4.621-1.852 9.858-1.285 13.98 1.506 4.122 2.79 6.591 7.443 6.591 12.421v64c0 4.978-2.469 9.631-6.591 12.421-2.517 1.705-5.453 2.579-8.409 2.579z" fill="#af705c"/><path d="m432 247h-80c-8.284 0-15-6.716-15-15s6.716-15 15-15h80c8.284 0 15 6.716 15 15s-6.716 15-15 15z" fill="#63544f"/></svg>