<svg enable-background="new 0 0 512 512" viewBox="0 0 512 512" xmlns="http://www.w3.org/2000/svg"><path d="m202.775 489.973-25.682-25.682c-3.373-3.373-7.859-5.231-12.629-5.231h-36.319c-41.483 0-75.232-33.749-75.232-75.232v-36.319c0-4.771-1.858-9.256-5.231-12.629l-25.682-25.681c-29.334-29.333-29.334-77.061 0-106.395l25.682-25.682c3.373-3.373 5.232-7.859 5.232-12.63v-36.319c0-41.483 33.749-75.232 75.232-75.232h36.319c4.771 0 9.257-1.858 12.63-5.231l25.681-25.682c29.334-29.333 77.061-29.333 106.395 0l25.682 25.683c3.373 3.373 7.859 5.231 12.629 5.231h36.32c41.483 0 75.232 33.749 75.232 75.232v36.319c0 4.77 1.859 9.256 5.232 12.63l25.681 25.682c29.403 29.402 29.405 76.99 0 106.395l-25.681 25.681c-3.373 3.373-5.232 7.86-5.232 12.63v36.319c0 41.483-33.749 75.232-75.232 75.232h-36.32c-4.771 0-9.256 1.858-12.629 5.231l-25.682 25.682c-29.326 29.323-77.057 29.339-106.396-.002z" fill="#ffdb2d"/><path d="m489.945 202.802-25.681-25.682c-3.373-3.373-5.232-7.86-5.232-12.63v-36.319c0-41.483-33.749-75.232-75.232-75.232h-36.32c-4.771 0-9.256-1.858-12.629-5.231l-25.681-25.682c-14.663-14.663-33.921-21.995-53.181-21.999v511.946c19.261-.005 38.52-7.34 53.18-21.999l25.682-25.682c3.373-3.373 7.859-5.231 12.629-5.231h36.32c41.483 0 75.232-33.749 75.232-75.232v-36.319c0-4.77 1.859-9.256 5.232-12.63l25.681-25.681c29.406-29.407 29.403-76.995 0-106.397z" fill="#f90"/><path d="m247.88 352.435c-34.098-1.137-61.945-18.754-61.945-36.939 0-9.662 8.525-23.868 19.322-23.868 11.934 0 21.595 16.766 42.623 20.459v-46.032c-26.141-9.946-56.83-22.164-56.83-58.536 0-36.087 26.711-53.42 56.83-57.682v-7.957c0-3.978 4.546-7.672 10.798-7.672 5.399 0 10.798 3.694 10.798 7.672v7.104c17.617.569 50.862 5.114 50.862 24.721 0 7.672-5.114 23.3-17.617 23.3-9.377 0-14.776-9.092-33.245-10.514v41.485c25.857 9.662 55.978 23.016 55.978 61.375 0 35.235-22.732 56.546-55.978 61.945v8.24c0 3.978-5.399 7.672-10.798 7.672-6.251 0-10.798-3.694-10.798-7.672zm2.842-131.276v-33.813c-12.786 2.558-18.185 9.092-18.185 15.913-.001 8.239 7.388 13.354 18.185 17.9zm15.912 52.567v38.076c9.66-2.273 17.334-7.672 17.334-17.902-.001-9.376-7.104-15.343-17.334-20.174z" fill="#fff"/><path d="m269.477 227.978v-41.485c18.47 1.421 23.868 10.514 33.245 10.514 12.503 0 17.617-15.628 17.617-23.3 0-19.607-33.245-24.153-50.862-24.721v-7.104c0-3.978-5.399-7.672-10.798-7.672-.94 0-1.835.093-2.689.248v232.506c.853.156 1.748.248 2.689.248 5.399 0 10.798-3.694 10.798-7.672v-8.24c33.245-5.399 55.978-26.709 55.978-61.945-.002-38.361-30.123-51.715-55.978-61.377zm-2.843 83.823v-38.075c10.23 4.831 17.334 10.798 17.334 20.175-.001 10.23-7.673 15.627-17.334 17.9z" fill="#ffdb2d"/></svg>