<svg enable-background="new 0 0 512 512" height="512" viewBox="0 0 512 512" width="512" xmlns="http://www.w3.org/2000/svg"><path d="m411.563 121.437-155.563-64.437c-60.751 0-115.751 24.624-155.563 64.437l-64.437 155.563c0 60.751 24.624 115.751 64.437 155.563l155.563 64.437c60.751 0 115.751-24.624 155.563-64.437l64.437-155.563c0-60.751-24.624-115.751-64.437-155.563z" fill="#fff5f5"/><path d="m411.563 432.563 64.437-155.563c0-60.751-24.624-115.751-64.437-155.563l-155.563-64.437v440c60.751 0 115.751-24.624 155.563-64.437z" fill="#ece9e8"/><path d="m100.437 121.437c-39.813 39.812-64.437 94.812-64.437 155.563h220z" fill="#ff1f3e"/><path d="m411.563 121.437c-39.812-39.813-94.812-64.437-155.563-64.437v220z" fill="#999fed"/><path d="m476 277h-220l155.563 155.563c39.813-39.812 64.437-94.812 64.437-155.563z" fill="#ffcd00"/><path d="m100.437 432.563c39.812 39.813 94.812 64.437 155.563 64.437v-220z" fill="#00ff94"/><path d="m256 512c-62.771 0-121.784-24.444-166.17-68.83s-68.83-103.399-68.83-166.17 24.444-121.784 68.83-166.17 103.399-68.83 166.17-68.83 121.784 24.444 166.17 68.83 68.83 103.399 68.83 166.17-24.444 121.784-68.83 166.17-103.399 68.83-166.17 68.83zm0-440c-113.038 0-205 91.963-205 205s91.962 205 205 205c113.037 0 205-91.963 205-205s-91.963-205-205-205z" fill="#613394"/><path d="m461 277c0 113.037-91.963 205-205 205v30c62.771 0 121.784-24.444 166.17-68.83s68.83-103.399 68.83-166.17-24.444-121.784-68.83-166.17-103.399-68.83-166.17-68.83v30c113.037 0 205 91.963 205 205z" fill="#4b1b7a"/><path d="m357.647 234.896c-11.15-26.888-32.655-48.393-59.544-59.543h-84.207c-26.888 11.15-48.393 32.655-59.543 59.544v84.207c11.15 26.888 32.655 48.393 59.543 59.543h84.207c26.888-11.15 48.393-32.655 59.543-59.544v-84.207z" fill="#fff5f5"/><path d="m298.104 175.353h-42.104v203.294h42.104c26.888-11.15 48.393-32.655 59.543-59.544v-84.207c-11.15-26.888-32.655-48.393-59.543-59.543z" fill="#ece9e8"/><path d="m357.647 319.104c5.379-12.97 8.353-27.189 8.353-42.104s-2.974-29.134-8.353-42.104l-101.647 42.104z" fill="#ffcd00"/><path d="m298.104 175.353c-12.97-5.379-27.189-8.353-42.104-8.353s-29.134 2.974-42.104 8.353l42.104 101.647z" fill="#aed0ff"/><path d="m256 277-42.104 101.647c12.97 5.379 27.189 8.353 42.104 8.353s29.134-2.974 42.104-8.353z" fill="#00ff94"/><path d="m256 277-101.647-42.104c-5.379 12.97-8.353 27.189-8.353 42.104s2.974 29.134 8.353 42.104z" fill="#ff1f3e"/><path d="m298.104 175.353c-12.97-5.379-27.189-8.353-42.104-8.353v110z" fill="#999fed"/><path d="m242.258 83.87-27.5-62.858c-4.336-9.91 2.925-21.012 13.742-21.012h55c10.817 0 18.078 11.102 13.742 21.012l-27.5 62.858c-5.242 11.984-22.241 11.984-27.484 0z" fill="#ffe89c"/><path d="m283.5 0h-27.5v92.858c5.56 0 11.121-2.996 13.742-8.988l27.5-62.858c4.337-9.91-2.924-21.012-13.742-21.012z" fill="#ffcd00"/><path d="m298.104 378.647-42.104-101.647v110c14.915 0 29.134-2.974 42.104-8.353z" fill="#00dd80"/><path d="m256 402c-68.925 0-125-56.075-125-125s56.075-125 125-125 125 56.075 125 125-56.075 125-125 125zm0-220c-52.383 0-95 42.617-95 95s42.617 95 95 95 95-42.617 95-95-42.617-95-95-95z" fill="#613394"/><path d="m351 277c0 52.383-42.617 95-95 95v30c68.925 0 125-56.075 125-125s-56.075-125-125-125v30c52.383 0 95 42.617 95 95z" fill="#4b1b7a"/><circle cx="256" cy="277" fill="#ff6c6c" r="45"/><path d="m301 277c0-24.813-20.187-45-45-45v90c24.813 0 45-20.187 45-45z" fill="#ff1f3e"/></svg>